<svg width="30" height="30" viewBox="0 0 30 30" fill="none" xmlns="http://www.w3.org/2000/svg">
<path d="M22.5106 19.7426L21.4913 18.9099L20.2659 14.905C20.2083 14.719 20.1039 14.5509 19.9628 14.4166C19.8216 14.2824 19.6485 14.1865 19.4598 14.1383C17.7831 13.7394 16.0643 13.5449 14.3409 13.5593C12.6176 13.5449 10.8988 13.7394 9.22217 14.1383C9.03317 14.1864 8.85971 14.2823 8.71843 14.4167C8.57713 14.5512 8.47273 14.7196 8.41524 14.9059L7.1898 18.9109L6.17127 19.7426C5.95559 19.9183 5.78183 20.1399 5.66266 20.3913C5.54349 20.6426 5.48191 20.9175 5.48243 21.1956V24.2079C5.48309 24.4757 5.57859 24.7346 5.75197 24.9386C5.92534 25.1426 6.1654 25.2786 6.42953 25.3225V26.8247C6.42977 27.086 6.53367 27.3365 6.71844 27.5213C6.9032 27.706 7.15373 27.8099 7.41503 27.8102H9.16056C9.42186 27.8099 9.67239 27.706 9.85714 27.5213C10.042 27.3365 10.1459 27.086 10.1461 26.8247V25.3415H18.5373V26.8244C18.5376 27.0857 18.6416 27.3363 18.8265 27.5212C19.0112 27.7059 19.2618 27.8099 19.5231 27.8102H21.2682C21.5295 27.8099 21.7801 27.7059 21.9649 27.5212C22.1496 27.3363 22.2536 27.0857 22.2539 26.8244V25.3225C22.5181 25.2786 22.7581 25.1426 22.9315 24.9386C23.1049 24.7346 23.2003 24.4757 23.2011 24.2079V21.1956C23.2013 20.9173 23.1396 20.6425 23.0201 20.391C22.9006 20.1396 22.7266 19.918 22.5106 19.7426ZM9.36323 26.8247C9.36323 26.8789 9.34171 26.9307 9.30341 26.969C9.26511 27.0074 9.21316 27.0289 9.159 27.0289H7.41346C7.35929 27.0289 7.30734 27.0074 7.26904 26.969C7.23074 26.9307 7.20921 26.8789 7.20921 26.8247V25.3415H9.36323V26.8247ZM21.2669 27.0289H19.5225C19.4682 27.0289 19.4162 27.0073 19.3779 26.969C19.3396 26.9306 19.3181 26.8786 19.3179 26.8244V25.3415H21.4719V26.8244C21.4719 26.8786 21.4503 26.9306 21.4121 26.969C21.3738 27.0073 21.3212 27.0289 21.2669 27.0289ZM22.4183 24.2079C22.4183 24.3013 22.3812 24.3909 22.3151 24.4569C22.2491 24.5229 22.1596 24.56 22.0662 24.5602H6.61503C6.52164 24.56 6.43212 24.5229 6.36609 24.4569C6.30006 24.3909 6.26292 24.3013 6.26279 24.2079V21.1956C6.2624 21.0333 6.29826 20.8729 6.36777 20.7262C6.43729 20.5793 6.53869 20.45 6.66457 20.3474L7.77574 19.4399C7.83544 19.3909 7.87939 19.3253 7.90207 19.2514L9.16233 15.1333C9.17976 15.0753 9.21207 15.0227 9.25603 14.9809C9.29999 14.939 9.3541 14.9094 9.41301 14.895C11.0273 14.5117 12.682 14.3256 14.3409 14.3404C15.9999 14.3256 17.6545 14.5119 19.2686 14.895C19.3276 14.9094 19.3818 14.939 19.4258 14.9809C19.4698 15.0227 19.5022 15.0754 19.5195 15.1336L20.7798 19.2517C20.8025 19.3256 20.8465 19.391 20.9062 19.44L22.0173 20.3474C22.1432 20.45 22.2445 20.5794 22.3141 20.7262C22.3835 20.8729 22.4195 21.0333 22.4191 21.1956L22.4183 24.2079Z" fill="#CECECE"/>
<path d="M9.00581 19.4177C10.776 19.6354 12.5588 19.7348 14.3423 19.7152C16.1257 19.7348 17.9084 19.6354 19.6786 19.4177C19.7347 19.41 19.7886 19.3902 19.8363 19.3597C19.884 19.3291 19.9246 19.2885 19.9551 19.2408C19.9856 19.1931 20.0054 19.1392 20.013 19.0831C20.0207 19.027 20.016 18.9698 19.9994 18.9157L19.0159 15.7014C18.9957 15.635 18.9581 15.5751 18.9071 15.5281C18.8561 15.481 18.7936 15.4484 18.7257 15.4335C17.2844 15.1305 15.815 14.9821 14.3423 14.9907C12.8694 14.9811 11.3999 15.1295 9.95871 15.4335C9.89094 15.4484 9.82835 15.4811 9.77735 15.5281C9.72637 15.5752 9.68881 15.635 9.66854 15.7014L8.68505 18.9157C8.6685 18.9698 8.6639 19.0268 8.67157 19.083C8.67925 19.139 8.69904 19.1928 8.72954 19.2404C8.76005 19.2881 8.80055 19.3287 8.84827 19.3591C8.89597 19.3895 8.94973 19.4101 9.00581 19.4177ZM10.3489 16.1498C11.6641 15.8911 13.0019 15.7644 14.3423 15.7718C15.6829 15.7655 17.0209 15.8927 18.3364 16.1514L19.1163 18.7007C17.5307 18.8687 15.9367 18.9465 14.3423 18.934C12.7477 18.9467 11.1538 18.869 9.5681 18.7011L10.3489 16.1498Z" fill="#CECECE"/>
<path d="M16.0101 21.5605H12.67C12.5598 21.5605 12.451 21.5849 12.3515 21.6322C12.252 21.6794 12.1642 21.7482 12.0946 21.8337C12.025 21.9191 11.9753 22.0188 11.949 22.1258C11.9228 22.2328 11.9207 22.3444 11.943 22.4522L12.1564 23.4902C12.1912 23.6574 12.2824 23.8077 12.4147 23.9155C12.5471 24.0235 12.7126 24.0827 12.8834 24.0831H15.7967C15.9676 24.0827 16.133 24.0235 16.2654 23.9155C16.3979 23.8077 16.489 23.6574 16.5239 23.4902L16.7371 22.4522C16.7594 22.3444 16.7573 22.2328 16.7311 22.1258C16.7049 22.0188 16.6551 21.9191 16.5856 21.8337C16.516 21.7482 16.4281 21.6794 16.3287 21.6322C16.2291 21.5849 16.1203 21.5605 16.0101 21.5605ZM12.7175 22.3418H13.9495V23.3015H12.9151L12.7175 22.3418ZM15.7651 23.3015H14.7307V22.3418H15.9626L15.7651 23.3015Z" fill="#CECECE"/>
<path d="M21.4648 21.5902C21.3199 21.4792 21.1514 21.4033 20.9721 21.3689C20.7929 21.3343 20.6082 21.3422 20.4326 21.3915L19.0212 21.7828C18.8182 21.8396 18.6394 21.9611 18.5118 22.1289C18.3842 22.2968 18.3149 22.5016 18.3145 22.7125V23.0959C18.3148 23.3518 18.4166 23.5971 18.5975 23.7779C18.7784 23.9588 19.0236 24.0605 19.2795 24.0606H20.9669C21.2225 24.0601 21.4674 23.9582 21.6481 23.7773C21.8286 23.5965 21.9302 23.3515 21.9306 23.0959V22.5312C21.9314 22.3489 21.8896 22.1691 21.8088 22.0056C21.7279 21.8423 21.6101 21.7001 21.4648 21.5902ZM21.1501 23.0959C21.1499 23.1446 21.1305 23.1913 21.0961 23.2258C21.0616 23.2601 21.0149 23.2795 20.9664 23.2795H19.2788C19.2301 23.2795 19.1834 23.2601 19.1489 23.2258C19.1145 23.1913 19.0952 23.1446 19.0951 23.0959V22.7125C19.0952 22.6725 19.1082 22.6335 19.1324 22.6016C19.1566 22.5698 19.1905 22.5466 19.2291 22.5356L20.6406 22.1443C20.6759 22.1346 20.7124 22.1298 20.7489 22.1296C20.8552 22.1301 20.9571 22.1725 21.0321 22.2478C21.1072 22.3231 21.1494 22.4251 21.1494 22.5315L21.1501 23.0959Z" fill="#CECECE"/>
<path d="M9.66155 21.7816L8.24972 21.3902C8.07413 21.3418 7.88972 21.3345 7.71086 21.3691C7.532 21.4036 7.36353 21.4789 7.21858 21.5892C7.07362 21.6995 6.95609 21.8418 6.87516 22.0051C6.79422 22.1682 6.75205 22.3479 6.75195 22.5301V23.0948C6.75225 23.3505 6.85402 23.5958 7.03492 23.7766C7.21583 23.9575 7.46109 24.0592 7.7169 24.0595H9.4044C9.66022 24.0592 9.90549 23.9575 10.0864 23.7766C10.2674 23.5958 10.3691 23.3505 10.3694 23.0948V22.7112C10.3689 22.5004 10.2995 22.2954 10.1717 22.1275C10.0439 21.9596 9.86475 21.8382 9.66155 21.7816ZM9.58745 23.0948C9.58738 23.1435 9.568 23.1901 9.53356 23.2245C9.49912 23.2589 9.45242 23.2782 9.40373 23.2782H7.71623C7.66755 23.2782 7.62086 23.2589 7.58642 23.2245C7.55198 23.1901 7.53259 23.1435 7.53253 23.0948V22.5301C7.53253 22.4236 7.57468 22.3216 7.64973 22.2464C7.7248 22.1711 7.82665 22.1286 7.93298 22.1282C7.96949 22.1282 8.00582 22.1332 8.04102 22.1429L9.45285 22.5345C9.49136 22.5454 9.52528 22.5685 9.54945 22.6004C9.57362 22.6324 9.58672 22.6712 9.58678 22.7112L9.58745 23.0948Z" fill="#CECECE"/>
<path d="M20.3947 1.58398C19.1822 1.58816 18.0181 2.05976 17.1445 2.90063C16.2711 3.74151 15.7555 4.88685 15.7052 6.09826C15.6548 7.30969 16.0737 8.49385 16.8744 9.40428C17.6751 10.3147 18.7961 10.8813 20.0041 10.986V12.828C20.0041 12.9316 20.0452 13.031 20.1185 13.1042C20.1918 13.1775 20.2911 13.2186 20.3947 13.2186C20.4982 13.2186 20.5977 13.1775 20.671 13.1042C20.7442 13.031 20.7854 12.9316 20.7854 12.828V10.986C21.9932 10.8813 23.1142 10.3147 23.9151 9.40428C24.7158 8.49385 25.1345 7.30969 25.0842 6.09826C25.034 4.88685 24.5184 3.74151 23.6448 2.90063C22.7712 2.05976 21.6071 1.58816 20.3947 1.58398ZM20.3947 6.86456C20.149 6.86461 19.9085 6.79175 19.7041 6.65521C19.4997 6.51868 19.3404 6.32458 19.2462 6.09748C19.1522 5.87038 19.1275 5.62048 19.1755 5.37938C19.2234 5.13826 19.3418 4.91679 19.5155 4.74295C19.6894 4.56912 19.9108 4.45072 20.152 4.40275C20.3931 4.35478 20.643 4.37938 20.8701 4.47343C21.0972 4.56749 21.2912 4.72679 21.4278 4.93119C21.5644 5.13558 21.6374 5.37588 21.6374 5.62171C21.637 5.95119 21.506 6.26708 21.273 6.50006C21.0401 6.73306 20.7242 6.86415 20.3947 6.86456ZM19.5911 7.47818C19.8447 7.58855 20.1182 7.64551 20.3947 7.64551C20.6712 7.64551 20.9448 7.58855 21.1982 7.47818L22.4342 7.75162C22.564 7.78111 22.68 7.85365 22.7632 7.95745C22.8465 8.06125 22.8922 8.1902 22.893 8.32327V9.32528C22.19 9.90638 21.3064 10.2243 20.3942 10.2243C19.4822 10.2243 18.5987 9.90638 17.8957 9.32528V8.32305C17.895 8.18961 17.9401 8.06001 18.0237 7.95594C18.1071 7.85186 18.224 7.77965 18.3542 7.75139L19.5911 7.47818ZM23.676 8.45362V8.32349C23.6775 8.01192 23.572 7.70929 23.3768 7.46635C23.1818 7.22341 22.9091 7.05491 22.6045 6.98912L21.9971 6.85519C22.2285 6.55583 22.3714 6.19761 22.4094 5.82118C22.4475 5.44475 22.3792 5.06518 22.2125 4.72555C22.0458 4.38594 21.7872 4.09985 21.4661 3.89976C21.145 3.69969 20.7742 3.59363 20.3958 3.59363C20.0175 3.59363 19.6467 3.69969 19.3255 3.89976C19.0044 4.09985 18.7458 4.38594 18.5791 4.72555C18.4124 5.06518 18.3441 5.44475 18.3822 5.82118C18.4202 6.19761 18.5631 6.55583 18.7945 6.85519L18.1871 6.98912C17.8825 7.05488 17.6098 7.22335 17.4148 7.46631C17.2197 7.70926 17.1141 8.01192 17.1157 8.32349V8.45408C16.7247 7.86169 16.5015 7.17449 16.4697 6.46543C16.4378 5.75636 16.5987 5.05194 16.935 4.42692C17.2714 3.80191 17.7707 3.27965 18.38 2.91562C18.9892 2.55158 19.6858 2.35936 20.3957 2.35936C21.1054 2.35936 21.802 2.55158 22.4112 2.91562C23.0205 3.27965 23.5198 3.80191 23.8562 4.42692C24.1925 5.05194 24.3534 5.75636 24.3215 6.46543C24.2898 7.17449 24.067 7.86124 23.676 8.45362Z" fill="#CECECE"/>
<path d="M7.89648 12.8277C7.89648 12.9313 7.93764 13.0307 8.0109 13.1039C8.08416 13.1772 8.18351 13.2183 8.28711 13.2183C8.39071 13.2183 8.49007 13.1772 8.56333 13.1039C8.63659 13.0307 8.67773 12.9313 8.67773 12.8277V10.9857C9.88913 10.8849 11.0147 10.3198 11.8191 9.40844C12.6235 8.49708 13.0445 7.31007 12.994 6.09554C12.9436 4.88101 12.4256 3.73299 11.5484 2.89148C10.6713 2.04995 9.50269 1.58008 8.28711 1.58008C7.07153 1.58008 5.90301 2.04995 5.02581 2.89148C4.14863 3.73299 3.63067 4.88101 3.58023 6.09554C3.52978 7.31007 3.95077 8.49708 4.75516 9.40844C5.55956 10.3198 6.6851 10.8849 7.89648 10.9857V12.8277ZM8.28711 6.86431C8.04129 6.86435 7.80097 6.79149 7.59656 6.65495C7.39214 6.51842 7.2328 6.32432 7.1387 6.09722C7.0446 5.87012 7.01996 5.62022 7.06788 5.37912C7.11581 5.13801 7.23417 4.91654 7.40797 4.74269C7.58178 4.56885 7.80324 4.45047 8.04433 4.40249C8.28543 4.35452 8.53534 4.37912 8.76246 4.47318C8.98957 4.56724 9.18368 4.72654 9.32027 4.93094C9.45684 5.13532 9.52974 5.37562 9.52974 5.62145C9.52933 5.95091 9.39829 6.26677 9.16534 6.49975C8.9324 6.73274 8.61657 6.86384 8.28711 6.86431ZM7.48354 7.47815C7.73706 7.58852 8.0106 7.64548 8.28711 7.64548C8.56361 7.64548 8.83716 7.58852 9.09069 7.47815L10.3267 7.75181C10.4571 7.78007 10.5738 7.85226 10.6573 7.95634C10.7408 8.06041 10.786 8.19002 10.7854 8.32346V9.32569C10.0824 9.90679 9.19874 10.2247 8.28666 10.2247C7.37458 10.2247 6.49101 9.90679 5.788 9.32569V8.32324C5.78867 8.19015 5.83438 8.06122 5.91767 7.95742C6.00096 7.85362 6.11693 7.78106 6.24671 7.75158L7.48354 7.47815ZM4.35854 6.29511C4.35777 5.68225 4.50036 5.07771 4.77491 4.52978C5.04947 3.98185 5.44837 3.50574 5.93974 3.13948C6.43113 2.77321 7.00136 2.52697 7.60489 2.42039C8.2084 2.31382 8.82848 2.34988 9.41558 2.52571C10.0027 2.70152 10.5406 3.01222 10.9862 3.43298C11.4318 3.85374 11.7728 4.37289 11.982 4.94895C12.1912 5.52501 12.2627 6.14201 12.1909 6.75065C12.1191 7.35929 11.9059 7.94271 11.5684 8.45427V8.32368C11.57 8.01211 11.4644 7.70945 11.2693 7.46649C11.0742 7.22355 10.8015 7.05507 10.497 6.98931L9.88978 6.85538C10.1213 6.55599 10.2642 6.19774 10.3023 5.82124C10.3404 5.44475 10.2722 5.06511 10.1055 4.72541C9.93869 4.38571 9.68004 4.09957 9.35887 3.89944C9.0377 3.69932 8.66687 3.59324 8.28844 3.59324C7.91003 3.59324 7.53919 3.69932 7.21801 3.89944C6.89684 4.09957 6.63821 4.38571 6.47146 4.72541C6.3047 5.06511 6.23651 5.44475 6.27464 5.82124C6.31276 6.19774 6.45566 6.55599 6.68711 6.85538L6.07974 6.98931C5.7752 7.05509 5.50253 7.22359 5.30746 7.46654C5.11239 7.70949 5.00677 8.01211 5.00831 8.32368V8.45382C4.58368 7.81379 4.35838 7.06318 4.35854 6.29511Z" fill="#CECECE"/>
</svg>
