<svg width="30" height="30" viewBox="0 0 30 30" fill="none" xmlns="http://www.w3.org/2000/svg">
<mask id="mask0_271_424" style="mask-type:luminance" maskUnits="userSpaceOnUse" x="0" y="0" width="29" height="29">
<path d="M28.8437 0.322266H0.34375V28.8222H28.8437V0.322266Z" fill="white"/>
</mask>
<g mask="url(#mask0_271_424)">
<path d="M26.2488 11.7802L16.878 2.40944C15.5447 1.06857 13.7301 0.316951 11.8391 0.322294H4.61915C3.30815 0.323898 2.24575 1.38629 2.24414 2.69729V28.3472C2.24414 28.6096 2.45683 28.8223 2.71915 28.8223H16.7022C17.9189 28.8223 19.0385 28.1576 19.6211 27.0895C20.9082 24.7274 22.8492 22.7864 25.2114 21.4991C26.2796 20.9165 26.9441 19.7971 26.9442 18.5803V13.4593C26.9459 12.8293 26.6955 12.2246 26.2488 11.7802ZM25.9941 18.5803C25.9943 19.4495 25.5195 20.2495 24.7563 20.6656C22.2339 22.0396 20.1614 24.112 18.7875 26.6344C18.3713 27.3976 17.5715 27.8723 16.7022 27.8723H3.19415V2.69729C3.19415 1.91027 3.83213 1.27229 4.61915 1.27229H11.8391C13.4778 1.26784 15.0503 1.91918 16.2059 3.0811L25.5771 12.4519C25.8432 12.7197 25.9932 13.0817 25.9941 13.4593V18.5803Z" fill="#CECECE"/>
<path d="M23.9553 12.3368L15.3716 3.75312C14.394 2.76999 13.0636 2.21895 11.6771 2.22268H5.56953C4.78251 2.22268 4.14453 2.86066 4.14453 3.64768V12.6727C4.14453 12.935 4.3572 13.1477 4.61952 13.1477H23.6195C23.8116 13.1477 23.9849 13.0321 24.0584 12.8546C24.132 12.6771 24.0912 12.4727 23.9553 12.3368ZM16.4945 12.1977H5.09453V3.64768C5.09453 3.38536 5.30721 3.17268 5.56953 3.17268H11.6771C12.8115 3.1696 13.9 3.62043 14.7 4.42479L16.4945 6.21933V12.1977ZM17.4446 12.1977V7.16933L22.4729 12.1977H17.4446Z" fill="#CECECE"/>
<path d="M22.6695 14.5723H19.8195C19.0325 14.5723 18.3945 15.2103 18.3945 15.9974C18.3945 16.7844 19.0325 17.4224 19.8195 17.4224H22.6695C23.4566 17.4224 24.0945 16.7844 24.0945 15.9974C24.0945 15.2103 23.4566 14.5723 22.6695 14.5723ZM22.6695 16.4723H19.8195C19.5572 16.4723 19.3445 16.2597 19.3445 15.9974C19.3445 15.735 19.5572 15.5223 19.8195 15.5223H22.6695C22.9319 15.5223 23.1446 15.735 23.1446 15.9974C23.1446 16.2597 22.9319 16.4723 22.6695 16.4723Z" fill="#CECECE"/>
</g>
</svg>
